<svg xmlns="http://www.w3.org/2000/svg" viewBox="0 0 128 128"><rect width="128" height="128" rx="28" fill="#000"/><g transform="translate(6.74,81.80) scale(65.6980,-65.6980)"><path fill="#fff" stroke="#fff" stroke-width="0.0609" stroke-linejoin="round" paint-order="stroke" d="M0.08 0L0.08 0.53L0.15 0.53L0.16 0.4L0.15 0.4Q0.16 0.47 0.19 0.5Q0.23 0.53 0.28 0.53L0.34 0.53L0.34 0.45L0.28 0.45Q0.24 0.45 0.22 0.44Q0.19 0.42 0.18 0.39Q0.16 0.36 0.16 0.32L0.16 0Z M0.57 0L0.38 0.53L0.47 0.53L0.62 0.09L0.78 0.53L0.87 0.53L0.68 0Z M0.95 0L0.95 0.53L1.02 0.53L1.03 0.4L1.01 0.4Q1.02 0.44 1.05 0.48Q1.07 0.51 1.1 0.52Q1.13 0.54 1.17 0.54Q1.24 0.54 1.29 0.5Q1.33 0.47 1.34 0.4L1.33 0.4Q1.33 0.45 1.35 0.48Q1.38 0.51 1.41 0.53Q1.44 0.54 1.49 0.54Q1.55 0.54 1.58 0.52Q1.62 0.5 1.64 0.45Q1.66 0.41 1.66 0.34L1.66 0L1.58 0L1.58 0.32Q1.58 0.4 1.55 0.43Q1.52 0.47 1.47 0.47Q1.43 0.47 1.4 0.45Q1.38 0.43 1.36 0.4Q1.35 0.37 1.35 0.32L1.35 0L1.26 0L1.26 0.32Q1.26 0.39 1.24 0.43Q1.21 0.47 1.15 0.47Q1.12 0.47 1.09 0.45Q1.06 0.43 1.05 0.4Q1.03 0.36 1.03 0.32L1.03 0Z"/></g></svg>